<svg version="1.1" id="Capa_1" xmlns="http://www.w3.org/2000/svg" xmlns:xlink="http://www.w3.org/1999/xlink" x="0px" y="0px" viewBox="0 0 512 512" style="enable-background:new 0 0 512 512;" xml:space="preserve" width="512"  height="512" >
                <g><path fill="#AAAAAA" d="M352,0H64C28.704,0,0,28.704,0,64v192c0,35.296,28.704,64,64,64v80c0,6.24,3.648,11.936,9.312,14.528 C75.456,415.52,77.728,416,80,416c3.744,0,7.456-1.312,10.4-3.872L197.92,320H352c35.296,0,64-28.704,64-64V64 C416,28.704,387.296,0,352,0z M384,256c0,17.632-14.368,32-32,32H192c-3.808,0-7.52,1.344-10.4,3.872L96,365.216V304 c0-8.832-7.168-16-16-16H64c-17.632,0-32-14.368-32-32V64c0-17.632,14.368-32,32-32h288c17.632,0,32,14.368,32,32V256z"></path></g>
                <g><path fill="#AAAAAA" d="M469.216,99.744c-8.384-2.88-17.44,1.536-20.352,9.92c-2.88,8.352,1.536,17.44,9.92,20.352 C471.456,134.368,480,146.432,480,160v192c0,17.632-14.368,32-32,32h-16c-8.832,0-16,7.168-16,16v61.216l-85.6-73.344 c-2.88-2.528-6.592-3.872-10.4-3.872H178.24c-8.832,0-16,7.168-16,16c0,8.832,7.136,16,16,16h135.84l107.52,92.128 c2.944,2.56,6.656,3.872,10.4,3.872c2.272,0,4.544-0.48,6.688-1.472C444.352,507.936,448,502.24,448,496v-80 c35.296,0,64-28.704,64-64V160C512,132.8,494.816,108.576,469.216,99.744z"></path></g>
                <g><path fill="#AAAAAA" d="M304,96H112c-8.832,0-16,7.168-16,16c0,8.832,7.168,16,16,16h192c8.832,0,16-7.168,16-16C320,103.168,312.832,96,304,96z"></path></g>
                <g><path fill="#AAAAAA" d="M240,160H112c-8.832,0-16,7.168-16,16c0,8.832,7.168,16,16,16h128c8.832,0,16-7.168,16-16 C256,167.168,248.832,160,240,160z"></path></g>
            </svg>